<svg width="43" height="48" viewBox="0 0 43 48" fill="none" xmlns="http://www.w3.org/2000/svg">
<path d="M21.5 39.9583C21.9813 39.9583 22.4258 39.7315 23.3173 39.2777L30.4902 35.634C33.6642 34.0206 35.25 33.214 35.25 31.9375V15.8958M21.5 39.9583C21.0188 39.9583 20.5742 39.7315 19.6827 39.2777L12.5098 35.634C9.33583 34.0206 7.75 33.214 7.75 31.9375V15.8958M21.5 39.9583V23.9167M35.25 15.8958C35.25 14.6194 33.6642 13.8104 30.4902 12.1994L23.3173 8.55562C22.4258 8.10187 21.9813 7.875 21.5 7.875C21.0188 7.875 20.5742 8.10187 19.6827 8.55562L12.5098 12.1994C9.33583 13.8127 7.75 14.6194 7.75 15.8958M35.25 15.8958C35.25 17.1723 33.6642 17.9812 30.4902 19.5923L23.3173 23.236C22.4258 23.6898 21.979 23.9167 21.5 23.9167M7.75 15.8958C7.75 17.1723 9.33583 17.9812 12.5098 19.5923L19.6827 23.236C20.5742 23.6898 21.021 23.9167 21.5 23.9167" stroke="black" stroke-width="1.5" stroke-linecap="round" stroke-linejoin="round"/>
<path d="M24.2271 45.8617L34.9842 40.655C39.744 38.3542 42.125 37.1992 42.125 35.375V12.4583C42.125 10.6342 39.744 9.48146 34.9842 7.17833L24.2271 1.97167C22.8887 1.32313 22.2196 1 21.5 1C20.7804 1 20.1113 1.32313 18.7729 1.97167L8.01583 7.17833C3.25604 9.47917 0.875 10.6342 0.875 12.4583V35.375C0.875 37.1992 3.25604 38.3519 8.01583 40.655L18.7729 45.8617C20.1113 46.5102 20.7804 46.8333 21.5 46.8333C22.2196 46.8333 22.8887 46.5102 24.2271 45.8617Z" stroke="black" stroke-width="1.5" stroke-linecap="round" stroke-linejoin="round"/>
</svg>
