<svg width="40" height="26" viewBox="0 0 40 26" fill="none" xmlns="http://www.w3.org/2000/svg">
<path d="M26.9804 13.0548L37.0482 4.30796V21.7019L26.9804 13.0548ZM14.0074 14.5361L17.5428 17.605C18.0977 18.0764 18.8212 18.3612 19.6117 18.3612H19.6395H19.6608C20.453 18.3612 21.1765 18.0748 21.7379 17.6001L21.733 17.6034L25.2684 14.5345L36.0154 23.7642H3.26534L14.0074 14.5361ZM3.25061 2.23418H36.035L20.2877 15.911C20.1114 16.0524 19.8917 16.1287 19.6657 16.127H19.6428H19.6215C19.3948 16.1287 19.1744 16.0517 18.9979 15.9093L18.9996 15.911L3.25061 2.23418ZM2.23418 4.30633L12.3003 13.0532L2.23418 21.6953V4.30633ZM37.5883 0.310985C37.1955 0.114574 36.7339 0 36.2445 0H3.04274C2.56855 0.00187707 2.10107 0.112169 1.67605 0.322443L1.69405 0.314259C1.18643 0.565473 0.758961 0.95331 0.459693 1.43416C0.160424 1.91502 0.00122653 2.46982 0 3.0362L0 22.9589C0.000866509 23.7652 0.321546 24.5382 0.891677 25.1083C1.46181 25.6785 2.23482 25.9991 3.04111 26H36.2396C37.0459 25.9991 37.8189 25.6785 38.389 25.1083C38.9592 24.5382 39.2798 23.7652 39.2807 22.9589V3.0362C39.2807 1.84627 38.5949 0.815109 37.5965 0.319169L37.5785 0.310985H37.5883Z" fill="white"/>
</svg>
