<svg width="36" height="39" viewBox="0 0 36 39" fill="none" xmlns="http://www.w3.org/2000/svg">
<path d="M25.8999 2.46251C25.8999 1.99507 26.0856 1.54677 26.4162 1.21624C26.7467 0.885703 27.195 0.700012 27.6624 0.700012H33.5374C34.0049 0.700012 34.4532 0.885703 34.7837 1.21624C35.1143 1.54677 35.2999 1.99507 35.2999 2.46251V8.33751C35.2999 8.80496 35.1143 9.25325 34.7837 9.58379C34.4532 9.91432 34.0049 10.1 33.5374 10.1C33.07 10.1 32.6217 9.91432 32.2912 9.58379C31.9606 9.25325 31.7749 8.80496 31.7749 8.33751V6.71601L21.2704 17.2205C20.94 17.5506 20.492 17.736 20.0249 17.736C19.5579 17.736 19.1099 17.5506 18.7794 17.2205L12.9749 11.416L3.05795 21.333C2.89659 21.5062 2.70201 21.6451 2.48581 21.7414C2.26961 21.8377 2.03623 21.8895 1.79957 21.8937C1.56292 21.8979 1.32785 21.8543 1.10839 21.7657C0.88893 21.6771 0.68957 21.5451 0.522206 21.3778C0.354842 21.2104 0.222902 21.011 0.134258 20.7916C0.0456132 20.5721 0.0020803 20.337 0.00625574 20.1004C0.0104312 19.8637 0.0622299 19.6303 0.158561 19.4141C0.254892 19.1979 0.393782 19.0034 0.566946 18.842L11.7294 7.67951C12.0599 7.34945 12.5079 7.16406 12.9749 7.16406C13.442 7.16406 13.89 7.34945 14.2204 7.67951L20.0249 13.484L29.2839 4.22501H27.6624C27.195 4.22501 26.7467 4.03932 26.4162 3.70879C26.0856 3.37826 25.8999 2.92996 25.8999 2.46251ZM1.81245 28.9C2.27989 28.9 2.72819 29.0857 3.05872 29.4162C3.38925 29.7468 3.57495 30.1951 3.57495 30.6625V36.5375C3.57495 37.005 3.38925 37.4533 3.05872 37.7838C2.72819 38.1143 2.27989 38.3 1.81245 38.3C1.345 38.3 0.896703 38.1143 0.56617 37.7838C0.235637 37.4533 0.0499461 37.005 0.0499461 36.5375V30.6625C0.0499461 30.1951 0.235637 29.7468 0.56617 29.4162C0.896703 29.0857 1.345 28.9 1.81245 28.9ZM12.9749 23.6125C12.9749 23.1451 12.7893 22.6968 12.4587 22.3662C12.1282 22.0357 11.6799 21.85 11.2124 21.85C10.745 21.85 10.2967 22.0357 9.96617 22.3662C9.63564 22.6968 9.44994 23.1451 9.44994 23.6125V36.5375C9.44994 37.005 9.63564 37.4533 9.96617 37.7838C10.2967 38.1143 10.745 38.3 11.2124 38.3C11.6799 38.3 12.1282 38.1143 12.4587 37.7838C12.7893 37.4533 12.9749 37.005 12.9749 36.5375V23.6125ZM20.6124 26.55C21.0799 26.55 21.5282 26.7357 21.8587 27.0662C22.1893 27.3968 22.3749 27.8451 22.3749 28.3125V36.5375C22.3749 37.005 22.1893 37.4533 21.8587 37.7838C21.5282 38.1143 21.0799 38.3 20.6124 38.3C20.145 38.3 19.6967 38.1143 19.3662 37.7838C19.0356 37.4533 18.8499 37.005 18.8499 36.5375V28.3125C18.8499 27.8451 19.0356 27.3968 19.3662 27.0662C19.6967 26.7357 20.145 26.55 20.6124 26.55ZM31.7749 18.9125C31.7749 18.4451 31.5893 17.9968 31.2587 17.6662C30.9282 17.3357 30.4799 17.15 30.0124 17.15C29.545 17.15 29.0967 17.3357 28.7662 17.6662C28.4356 17.9968 28.2499 18.4451 28.2499 18.9125V36.5375C28.2499 37.005 28.4356 37.4533 28.7662 37.7838C29.0967 38.1143 29.545 38.3 30.0124 38.3C30.4799 38.3 30.9282 38.1143 31.2587 37.7838C31.5893 37.4533 31.7749 37.005 31.7749 36.5375V18.9125Z" fill="black"/>
</svg>
