<svg width="23" height="23" viewBox="0 0 23 23" fill="none" xmlns="http://www.w3.org/2000/svg">
<path d="M6.65084 4.79165C6.65058 5.29998 6.44841 5.78739 6.08878 6.14666C5.72916 6.50592 5.24155 6.70761 4.73321 6.70736C4.22488 6.7071 3.73747 6.50493 3.37821 6.1453C3.01894 5.78568 2.81725 5.29806 2.81751 4.78973C2.81776 4.2814 3.01994 3.79399 3.37956 3.43472C3.73919 3.07546 4.2268 2.87377 4.73513 2.87402C5.24346 2.87428 5.73087 3.07646 6.09014 3.43608C6.4494 3.7957 6.65109 4.28332 6.65084 4.79165ZM6.70834 8.12665H2.87501V20.125H6.70834V8.12665ZM12.765 8.12665H8.95084V20.125H12.7267V13.8287C12.7267 10.3212 17.2979 9.9954 17.2979 13.8287V20.125H21.0833V12.5254C21.0833 6.61248 14.3175 6.8329 12.7267 9.73665L12.765 8.12665Z" fill="white"/>
</svg>
