<svg width="70" height="61" viewBox="0 0 70 61" fill="none" xmlns="http://www.w3.org/2000/svg">
<path d="M18.03 0.393164L52.096 20.052V40.104L0 10.026L16.696 0.393164C17.1123 0.168465 17.6137 0.168465 18.03 0.393164Z" fill="#3CA9E5"/>
<path d="M52.0966 0L34.7266 10.026L52.0966 20.052V0V0Z" fill="#2853C3"/>
<path d="M52.0957 0L68.8057 9.63284C69.2141 9.88128 69.4681 10.3204 69.4797 10.7983V50.116L52.0957 40.1041V0Z" fill="#1A4199"/>
<path d="M69.4666 50.1301L52.7706 59.7629C52.3361 60.0138 51.8009 60.0138 51.3664 59.7629L17.3145 40.1041V20.024L69.4666 50.1301Z" fill="#2853C3"/>
<path d="M2.39073e-05 10.026V49.3437C-0.00284675 49.8366 0.252975 50.295 0.674042 50.5513L17.37 60.1842V20.0239L2.39073e-05 10.026Z" fill="#60BEFF"/>
<path d="M17.3691 60.1561L34.7251 50.1301L17.3691 40.1041V60.1561V60.1561Z" fill="#3CA9E5"/>
</svg>
