<svg width="21" height="21" viewBox="0 0 21 21" fill="none" xmlns="http://www.w3.org/2000/svg">
<path d="M18.9814 0.059442C19.3461 -0.0721632 19.7542 0.0187212 20.0283 0.29284C20.3023 0.566996 20.3934 0.975139 20.2617 1.33972L13.7617 19.3397C13.7523 19.3658 13.741 19.3917 13.7295 19.4169C13.6059 19.6864 13.4077 19.9149 13.1582 20.0751C12.9085 20.2353 12.6179 20.3211 12.3213 20.3212C12.0245 20.3212 11.7332 20.2354 11.4834 20.0751C11.2431 19.9208 11.0511 19.7028 10.9268 19.4462V19.4471L7.5752 12.745L0.874023 9.3944L0.875 9.39343C0.618214 9.26905 0.399449 9.07727 0.245117 8.83679C0.0849599 8.58707 0 8.29653 0 7.99987C0 7.70321 0.0849599 7.41267 0.245117 7.16296L0.308594 7.07116C0.463422 6.8642 0.668258 6.69886 0.904297 6.59069C0.929484 6.57915 0.955387 6.56885 0.981445 6.55944L18.9814 0.059442ZM9.53711 12.1971L12.252 17.6278L16.8564 4.87878L9.53711 12.1971ZM2.69238 8.06725L8.12305 10.7821L15.4424 3.46276L2.69238 8.06725Z" fill="white"/>
</svg>
