<svg width="22" height="18" viewBox="0 0 22 18" fill="none" xmlns="http://www.w3.org/2000/svg">
<path d="M22 2.57536C21.2241 2.92804 20.3878 3.1598 19.5212 3.27064C20.4079 2.73658 21.0931 1.89016 21.4156 0.87243C20.5792 1.37625 19.6522 1.72893 18.6748 1.93046C17.8787 1.06388 16.7602 0.560059 15.4906 0.560059C13.1226 0.560059 11.1879 2.49475 11.1879 4.88288C11.1879 5.22548 11.2282 5.558 11.2988 5.87037C7.71154 5.689 4.51729 3.96592 2.39115 1.3561C2.01832 1.99092 1.80671 2.73658 1.80671 3.52255C1.80671 5.02395 2.56245 6.35405 3.73133 7.10978C3.01589 7.10978 2.35085 6.90825 1.76641 6.60596V6.63619C1.76641 8.7321 3.25773 10.4854 5.23272 10.8784C4.59875 11.0527 3.93289 11.0768 3.28796 10.9489C3.56164 11.8079 4.09764 12.5596 4.82061 13.0982C5.54358 13.6368 6.41716 13.9353 7.31856 13.9517C5.79063 15.1614 3.89659 15.8153 1.94779 15.8058C1.60518 15.8058 1.26258 15.7856 0.919983 15.7453C2.83452 16.9747 5.11181 17.6901 7.55032 17.6901C15.4906 17.6901 19.8537 11.1001 19.8537 5.3867C19.8537 5.19525 19.8537 5.01387 19.8436 4.82242C20.6901 4.21783 21.4156 3.45201 22 2.57536Z" fill="white"/>
</svg>
